<?xml version="1.0" encoding="utf-8"?>
<!-- Generator: Adobe Illustrator 18.1.1, SVG Export Plug-In . SVG Version: 6.00 Build 0)  -->
<svg version="1.1" id="Layer_1" xmlns="http://www.w3.org/2000/svg" xmlns:xlink="http://www.w3.org/1999/xlink" x="0px" y="0px"
	 viewBox="0 0 378.1 141.5" enable-background="new 0 0 378.1 141.5" xml:space="preserve">
<g>
	<g>
		<path d="M0.9,132.9L79.6,32.2c1.6-2.1,4.7-2.1,6.3,0l12.8,16.1c1.6,2,4.6,2,6.2,0.1l4.4-5.1c1.7-2,4.9-1.8,6.4,0.4l59.8,89.5
			c1.8,2.7-0.1,6.3-3.4,6.3H4C0.7,139.4-1.2,135.5,0.9,132.9z"/>
		<polygon stroke="#FFFFFF" stroke-width="2" stroke-miterlimit="10" points="122.8,139.9 163.2,86.8 198.8,139.9 		"/>
		<path fill="#333333" d="M146.4,107L71.2,44.2l9.1-11.9c1.2-1.6,3.7-1.8,5.1-0.3l15.7,16.3c1.4,1.4,3.7,1.4,5-0.2l3.8-4.4
			c1.4-1.7,4.1-1.6,5.3,0.3l37.7,55l-1.1,1.3L146.4,107z"/>
		<path fill="#B3B3B3" d="M78.7,33.4L101.9,57c0.6,0.6,1.7,0.6,2.3,0l6.7-7.4c0.6-0.7,1.8-0.7,2.4,0.1l9.5,11.8l28.5,39.5l1.6-2
			l-38.3-57.4c-0.4-0.6-3.3-0.7-3.8-0.1l-5,6c-1.3,1.5-3.5,1.6-4.9,0.2L85,30.5c-0.7-0.7-3.8-0.6-4.4,0.1L78.7,33.4z"/>
		<path fill="#333333" d="M156.2,101.5l34.9,36.7c0.4,0.4,1,0.7,1.6,0.7l0,0c1.8,0,2.8-2,1.8-3.4l-29.6-44.2c-0.9-1.3-2.8-1.3-3.6,0
			l-5.2,7.4C155.4,99.6,155.4,100.7,156.2,101.5z"/>
	</g>
	<g>
		<text transform="matrix(1 0 0 1 182.0812 115.344)" font-family="'Copperplate-Bold'" font-size="37.7494">OLD GOAT</text>
		<text transform="matrix(1 0 0 1 199.5912 138.4479)" font-family="'Copperplate-Light'" font-size="27.2029">photography</text>
	</g>
</g>
</svg>
